PathFileType	4	(X/Y/Z)	s03c0001.trc
DataRate	CameraRate	NumFrames	NumMarkers	Units	OrigDataRate	OrigDataStartFrame	OrigNumFrames
200	200	4	49	mm	200	500	2000
Frame#	Time	racr			lacr			c7			jug			rlel			rdr			llel			ldr			s2			lic			ric			lasi			rasi			rpsi			lpsi			rgt			lgt			rth1			rth2			rth3			rth4			rlfc			rmfc			rsh1			rsh2			rsh3			rsh4			rlmal			rmmal			rcal			rtoe			rmt5			rmt1			lth1			lth2			lth4			lth3			llfc			lmfc			lsh1			lsh2			lsh3			lsh4			llmal			lmmal			lcal			ltoe			lmt1			lmt5			
		X1	Y1	Z1	X2	Y2	Z2	X3	Y3	Z3	X4	Y4	Z4	X5	Y5	Z5	X6	Y6	Z6	X7	Y7	Z7	X8	Y8	Z8	X9	Y9	Z9	X10	Y10	Z10	X11	Y11	Z11	X12	Y12	Z12	X13	Y13	Z13	X14	Y14	Z14	X15	Y15	Z15	X16	Y16	Z16	X17	Y17	Z17	X18	Y18	Z18	X19	Y19	Z19	X20	Y20	Z20	X21	Y21	Z21	X22	Y22	Z22	X23	Y23	Z23	X24	Y24	Z24	X25	Y25	Z25	X26	Y26	Z26	X27	Y27	Z27	X28	Y28	Z28	X29	Y29	Z29	X30	Y30	Z30	X31	Y31	Z31	X32	Y32	Z32	X33	Y33	Z33	X34	Y34	Z34	X35	Y35	Z35	X36	Y36	Z36	X37	Y37	Z37	X38	Y38	Z38	X39	Y39	Z39	X40	Y40	Z40	X41	Y41	Z41	X42	Y42	Z42	X43	Y43	Z43	X44	Y44	Z44	X45	Y45	Z45	X46	Y46	Z46	X47	Y47	Z47	X48	Y48	Z48	X49	Y49	Z49	
500	2.5000	259.510132	1570.535278	584.156006	254.793060	1587.914917	204.006943	193.640381	1607.684692	397.357880	359.413757	1554.605225	395.609741	183.736618	1298.258667	690.603394	276.777832	1116.883545	885.054443	180.799179	1316.561401	99.024658	262.166626	1125.486816	-106.318146	158.965942	1066.677368	375.019501	293.226044	1165.183838	195.392593	286.871735	1150.756226	567.354675	356.075378	1104.013428	237.627090	357.356873	1100.235596	520.787415	160.264832	1107.460327	424.890442	164.035004	1115.694458	341.934326	268.850403	1008.744385	561.902161	282.509735	1015.584717	187.390167	282.750183	870.237854	576.871521	313.750305	786.858582	571.051758	303.826172	703.683838	556.482117	349.764923	792.418091	566.381409	298.010498	577.395325	524.758789	329.226135	556.880737	418.320282	243.353851	412.664551	552.678162	254.458740	323.570770	548.110474	219.074982	243.218216	542.274292	288.621857	320.166534	530.593689	208.919785	104.177254	530.944092	248.931854	121.874763	449.960114	165.220810	56.109058	483.357819	468.513092	90.968277	503.299286	353.540039	43.417675	563.387756	378.778656	81.004974	453.974579	294.162659	865.740784	174.400620	318.099823	782.820984	181.772186	354.110809	785.054077	183.816101	297.237793	698.018372	195.374481	311.927856	576.847778	220.616013	333.853973	558.816833	333.956604	252.439590	413.200684	184.415665	264.742310	329.030029	192.990860	229.521530	244.616959	196.637344	299.044250	324.910461	211.091873	220.692093	110.622292	206.051422	259.129852	124.790764	292.834534	172.465851	55.070717	258.092438	479.399231	92.678276	234.428070	389.102173	73.356506	286.041046	358.251831	50.702709	172.465576	
501	2.5050	259.520721	1570.541382	584.174683	254.824234	1587.910889	204.001770	193.636276	1607.689209	397.385468	359.423492	1554.600830	395.609894	183.762680	1298.250000	690.580872	276.785492	1116.877686	885.027100	180.823990	1316.560547	99.046387	262.188324	1125.482178	-106.302429	158.997421	1066.677002	375.020538	293.227905	1165.180176	195.391464	286.858612	1150.773804	567.356873	356.088806	1104.017456	237.649414	357.362823	1100.242188	520.788513	160.268219	1107.447388	424.895203	164.076736	1115.694824	341.908722	268.837280	1008.750000	561.901611	282.515961	1015.586792	187.377762	282.767212	870.223450	576.860168	313.755341	786.844238	571.050903	303.815430	703.671265	556.487000	349.753815	792.410278	566.379944	298.010620	577.400208	524.762451	329.225525	556.879456	418.319550	243.351074	412.666565	552.678162	254.472244	323.560089	548.114990	219.089676	243.207703	542.264343	288.620880	320.173553	530.587097	208.932297	104.173103	530.958740	248.925461	121.858856	449.954498	165.257629	56.085300	483.357727	468.517365	90.969086	503.289398	353.512268	43.381912	563.377502	378.759827	81.002708	453.975067	294.171204	865.752625	174.388412	318.117981	782.817688	181.787735	354.134705	785.036194	183.814789	297.250031	698.019470	195.393463	311.980286	576.843262	220.624298	333.880920	558.825195	333.958008	252.441101	413.196991	184.411194	264.749756	329.012665	192.992355	229.519089	244.618896	196.629242	299.070312	324.892639	211.105576	220.687805	110.636436	206.048569	259.113892	124.794678	292.821869	172.460022	55.060196	258.089478	479.410980	92.692734	234.440582	389.072540	73.336830	286.046906	358.222107	50.692287	172.461517	
502	2.5100	259.545288	1570.517456	584.163391	254.858551	1587.904785	203.991867	193.680557	1607.685181	397.374146	359.448578	1554.598877	395.619995	183.780182	1298.244751	690.576233	276.809875	1116.872559	885.028931	180.847076	1316.543823	99.064323	262.230042	1125.453125	-106.293488	158.997421	1066.677002	375.020538	293.227051	1165.179321	195.401123	286.858673	1150.790039	567.355530	356.102692	1104.011475	237.634598	357.374390	1100.231689	520.796326	160.373795	1107.596191	424.932190	164.067535	1115.696655	341.935638	268.845978	1008.754700	561.901367	282.543213	1015.586670	187.387115	282.770599	870.225586	576.885986	313.759949	786.851257	571.071289	303.826385	703.673340	556.486511	349.775085	792.395874	566.376160	298.019348	577.401978	524.765381	329.228149	556.873230	418.332306	243.363647	412.672516	552.677307	254.473450	323.570740	548.117004	219.077347	243.210861	542.268982	288.647888	320.169586	530.601501	208.934235	104.184631	530.963745	248.925537	121.854340	449.963867	165.252121	56.103870	483.356842	468.512451	90.968353	503.282990	353.555725	43.403553	563.391663	378.771301	80.998573	453.978516	294.196136	865.755859	174.403458	318.140686	782.818665	181.782486	354.144257	785.048340	183.803558	297.267334	698.020691	195.381454	311.984039	576.827759	220.632629	333.887695	558.819641	333.960785	252.443909	413.206482	184.404022	264.762451	329.007568	193.008392	229.519623	244.618423	196.629105	299.056061	324.891602	211.102264	220.708694	110.630150	206.032486	259.120331	124.791077	292.829895	172.468216	55.070942	258.091705	479.417206	92.707077	234.440384	389.109070	73.364273	286.038757	358.260254	50.714535	172.474670	
503	2.5150	259.540649	1570.549316	584.214966	254.894516	1587.896362	203.979568	193.704758	1607.680786	397.354706	359.486359	1554.593872	395.612549	183.788101	1298.255493	690.580261	276.835663	1116.872437	885.013977	180.870285	1316.534912	99.066788	262.248596	1125.448853	-106.265480	158.997391	1066.689209	375.017578	293.260406	1165.167236	195.390472	286.887390	1150.782593	567.360474	356.102051	1104.024414	237.643982	357.389618	1100.232056	520.789368	160.374603	1107.594971	424.935516	164.083801	1115.692017	341.930359	268.843536	1008.745850	561.910889	282.556580	1015.587585	187.378296	282.757599	870.242920	576.904175	313.762299	786.855347	571.080261	303.828003	703.671326	556.504150	349.775391	792.415894	566.394531	298.021301	577.402893	524.771545	329.213409	556.857544	418.333282	243.354111	412.665710	552.684204	254.460510	323.559723	548.120789	219.085449	243.211060	542.269470	288.622406	320.170898	530.607788	208.928558	104.184540	530.953491	248.923004	121.862747	449.962769	165.224243	56.119671	483.353973	468.514954	90.946732	503.286682	353.555725	43.403545	563.391663	378.761017	81.006783	453.970917	294.216492	865.746460	174.390747	318.148651	782.807495	181.796844	354.149292	785.046448	183.796753	297.271484	698.021484	195.401917	311.984680	576.829895	220.619934	333.878021	558.803650	333.955078	252.458862	413.214417	184.390686	264.761200	329.033691	192.993607	229.521515	244.616959	196.637344	299.066681	324.891174	211.109650	220.672699	110.649773	206.039261	259.143463	124.783165	292.823761	172.451370	55.091179	258.081573	479.380829	92.682472	234.402176	389.119354	73.346703	286.054352	358.281250	50.713173	172.450943	
